<?xml version="1.0" encoding="UTF-8"?><svg id="a" xmlns="http://www.w3.org/2000/svg" viewBox="0 0 411.43 131.12"><defs><style>.c{fill:#25282a;}</style></defs><g id="b"><polygon class="c" points="96.08 1.63 68.57 1.63 68.57 129.55 111.8 129.55 111.8 106.36 96.08 106.36 96.08 1.63"/><path class="c" d="M16.11,1.63L0,129.55h23.58l1.57-14.34h11l1.38,14.34h28.09L49.91,1.63H16.11ZM26.52,94.18l3.43-53h1.39l3.43,53h-8.26Z"/><path class="c" d="M211.95,50.85h0c-5.02-3.14-7.57-7.1-7.07-12.97.5-5.87,3.4-8.74,8.19-9.27,3.31-.36,5.91-.33,8.54-.29.78.01,1.56.02,2.37.02V2.93c-3.86-2.08-9.63-3.2-16.8-2.87-16.74.77-28.01,13.26-28.09,39.95-.06,17.88,4.86,24.29,17.11,33.88,6.87,5.37,8.01,13.52,7.6,17.89-.02.19-.04.39-.05.61-.33,3.8-1.03,11.84-9.24,12.98-3.44.48-6.45.24-10.01-.04h0c-.67-.05-1.36-.11-2.07-.16l-.07,23.8c4.81,1.11,10.73,2.17,18.93,2.17,20.89,0,30.16-20.23,30.16-42.63,0-17.2-8.17-30.61-19.48-37.64Z"/><path class="c" d="M379.8.06c-22.01,0-31.64,15.52-31.64,65.23,0,46.57,10.61,65.82,31.64,65.82s31.63-19.45,31.63-66.21C411.43,15.39,401.8.06,379.8.06ZM382.95,83.17c0,21.22-.2,23.19-3.14,23.19s-3.14-1.96-3.14-22.99v-37.34c0-16.7.19-18.27,3.14-18.27s3.14,1.77,3.14,17.88v37.53Z"/><path class="c" d="M130.26,1.63l-16.11,127.91h23.58l1.57-14.34h11l1.38,14.34h28.1L164.06,1.63h-33.8ZM140.68,94.18l3.43-53h1.39l3.43,53h-8.26Z"/><path class="c" d="M331.07,77.08h0c8.84-3.73,13.36-11.39,13.36-32.62,0-32.03-11.79-42.83-31.24-42.83h-29.67v127.91h27.51v-45.78h2.75l5.5,45.78h27.51l-4.43-28.97c-1.34-8.78-5.27-16.96-11.29-23.49ZM317.33,53.7h0c0,7.86-1.77,10.61-5.3,10.61h-1.57V28.75h1.18c3.93,0,5.7,2.16,5.7,10.8v14.15Z"/><polygon class="c" points="228.71 28.16 240.3 28.16 240.3 129.55 267.8 129.55 267.8 28.16 279.4 28.16 279.4 1.63 228.71 1.63 228.71 28.16"/></g></svg>