<?xml version="1.0" encoding="UTF-8"?><svg id="Camada_2" xmlns="http://www.w3.org/2000/svg" viewBox="0 0 432.96 131.12"><defs><style>.cls-1{fill:#25282a;fill-rule:evenodd;}</style></defs><g id="Camada_1-2"><path class="cls-1" d="M211.95,50.84c-5.02-3.12-7.57-7.09-7.07-12.96.5-5.87,3.4-8.74,8.19-9.27,3.31-.36,5.91-.33,8.54-.29h0c.78.01,1.56.02,2.37.02V2.93c-3.86-2.08-9.63-3.2-16.8-2.87-16.74.77-28.01,13.26-28.09,39.95-.06,17.88,4.86,24.29,17.11,33.88,6.87,5.37,8.01,13.52,7.6,17.89-.02.19-.04.39-.05.61-.33,3.8-1.03,11.84-9.24,12.98-3.44.48-6.45.24-10.01-.04h0c-.67-.05-1.36-.11-2.07-.16l-.07,23.8c4.81,1.11,10.73,2.17,18.93,2.17,20.89,0,30.16-20.23,30.16-42.63,0-17.2-8.17-30.61-19.48-37.64h0ZM422.15.06c-6.91,0-10.71,6.71-10.71,19.22s3.6,19.42,10.61,19.42,10.91-5.91,10.91-19.52c0-12.62-4.01-19.12-10.81-19.12h0ZM422.05,36c-5.6,0-7.71-4.6-7.71-16.71s2.31-16.52,7.81-16.52,7.91,4.6,7.91,16.42c0,12.71-2.3,16.81-8.01,16.81ZM424.05,21.28c2.4-.6,3.5-2.8,3.5-6.3,0-4.6-1.9-7.11-5.3-7.11h-4.91v22.72h3.5v-8.91h1.3l1.8,8.91h3.6l-1.2-5.52c-.32-1.48-1.13-2.82-2.3-3.8ZM423.85,16.57c0,1.7-.5,2.5-1.9,2.5h-1.1v-8.11h1.1c1.4,0,1.9.6,1.9,2.3v3.3ZM0,129.55L16.11,1.63h33.8l15.71,127.92h-28.09l-1.38-14.34h-11l-1.57,14.34H0ZM29.96,41.18l-3.43,53h8.26l-3.43-53h-1.39ZM130.26,1.63l-16.11,127.91h23.58l1.57-14.34h11l1.38,14.34h28.1L164.06,1.63h-33.8ZM140.68,94.18l3.43-53h1.39l3.43,53h-8.26ZM68.57,1.63h27.51v104.73h15.72v23.19h-43.23V1.63ZM240.3,28.16h-11.59V1.63h50.69v26.53h-11.6v101.39h-27.5V28.16ZM331.07,77.08c8.85-3.73,13.36-11.39,13.36-32.62,0-32.03-11.79-42.83-31.24-42.83h-29.67v127.91h27.51v-45.78h2.75l5.5,45.78h27.51l-4.43-28.97c-1.34-8.78-5.27-16.96-11.29-23.49h0ZM317.32,53.7c0,7.86-1.77,10.62-5.3,10.62h-1.57V28.75h1.18c3.93,0,5.7,2.16,5.7,10.8v14.15h0ZM348.16,65.29C348.16,15.58,357.79.06,379.8.06s31.63,15.33,31.63,64.84c0,46.76-10.61,66.21-31.63,66.21s-31.64-19.26-31.64-65.82ZM379.8,106.36c2.94,0,3.14-1.96,3.14-23.19h0v-37.53c0-16.11-.19-17.88-3.14-17.88s-3.14,1.57-3.14,18.27v37.34c0,21.03.2,22.99,3.14,22.99Z"/></g></svg>